<svg version="1" xmlns="http://www.w3.org/2000/svg" width="933.333" height="933.333" viewBox="0 0 700.000000 700.000000"><path d="M0 350v350h700V0H0v350zm655 0v305H45V45h610v305z"/><path d="M350.5 82.6c-75.1 5.2-149.5 40.8-192.7 92.3-32.7 39.1-51.5 86.8-57.9 147.1-1.7 16-1.7 65.6 0 80 6.9 59.9 27.4 105.7 64.5 143.8 23.8 24.5 53.7 42.1 93.7 55.2 17.6 5.8 32.2 9.2 55.1 12.7 16.1 2.5 19.6 2.7 51.3 2.7 37.8.1 45.2-.5 72.5-6 23.8-4.8 47.2-12.7 66.8-22.4 13.8-6.9 29.1-16.2 35.9-21.7l2.1-1.8-22.1-41.7-22.1-41.8-5 3.1c-24.5 14.5-55.4 25.9-84.1 31-11 2-16.5 2.3-35.5 2.3-19.3.1-24.2-.3-34.5-2.2-50.3-9.6-87.8-37.4-103.6-76.9-6-14.7-8.9-29-8.9-43.1V386h366.8l1.2-5.3c2.6-12 6-35.1 7-47.6 1.7-22.4 1.1-40.2-2.1-60.6-7.3-46.4-29.9-88-65.7-120.9-40.4-37.1-89.2-60.8-138.2-67-12-1.5-35.9-2.6-44.5-2zm34.4 103.5c26.3 4.5 46.8 14.5 62.2 30.6 7.8 8.1 11.6 13.5 16.8 24 6.7 13.4 10.8 29 12.6 48l.7 7.3H232.8l.6-5.8c2-17 8.9-37.5 17.2-51.4 6.1-10.1 20.9-25.8 30.6-32.5 29.4-20.3 63.9-27 103.7-20.2z"/></svg>