<svg version="1" xmlns="http://www.w3.org/2000/svg" width="933.333" height="933.333" viewBox="0 0 700.000000 700.000000"><path d="M0 350v350h700V0H0v350zm655 0v305H45V45h610v305z"/><path d="M349.5 82.6c-48 3-100.7 21-142.5 48.7-56 37-92.1 95.1-103.9 167.2-3.5 21.2-4.4 34.4-4.5 63.5-.1 35.8 1.9 54.7 8.8 81.8 7.9 31.2 23.2 61.9 42.8 86.2 27.3 33.6 60.3 55.4 107.9 71 17.6 5.8 32.1 9.2 55.1 12.7 16.3 2.6 19.3 2.7 52.8 2.7 29 0 37.7-.3 47.5-1.7 35.2-5.3 64.8-14 90.3-26.7 13.8-6.9 29.1-16.2 35.9-21.7l2.1-1.8-22.1-41.7-22-41.8-5.1 3.1c-29.6 17.5-65.5 29.5-99.3 33-15.7 1.6-40.5.7-55.3-2.1-49.4-9.1-87.3-37.3-103.1-76.7-6-14.7-8.9-29-8.9-43.1V386h366.8l1.2-5.3c16.1-74.2 7.2-138.6-26.4-189C530.3 135.6 461.8 93.2 395 84.6c-12.3-1.6-35.6-2.6-45.5-2zm35.4 103.5c26.3 4.5 46.8 14.5 62.2 30.6 17.2 17.9 26.2 40.1 29.5 72.5l.6 6.8H232.8l.6-5.8c2-17 8.9-37.4 17.2-51.3 6.1-10.1 21-26 30.6-32.6 29.4-20.3 63.9-27 103.7-20.2z"/></svg>