<svg id="settlement-review" xmlns="http://www.w3.org/2000/svg" viewBox="0 0 510 510"><circle class="color-one" cx="255" cy="255" r="255"/><path class="color-two" d="M384.27,96H313.92V85.33h-37V78A20.93,20.93,0,1,0,235,78v7.36H198.08V96H127.73a4.73,4.73,0,0,0-4.73,4.74V426.26a4.73,4.73,0,0,0,4.73,4.74H384.17a4.86,4.86,0,0,0,4.83-4.64V100.75A4.73,4.73,0,0,0,384.27,96ZM334.15,416V373.32H376Z" transform="translate(-1 -1)"/><path class="white" d="M256,68a10,10,0,1,1-10,10A10,10,0,0,1,256,68Zm120,44V373.32H334.15V416H136V112h62.08v16.27H313.92V112ZM326.45,220.81,314.33,233v71.86H193.12V183.17H313.2L325.32,171H181V317H326.45ZM331,199.9l-9.09-9.13-68.18,68.82L228,233.35l-9.09,9.13,30.3,30.42,4.55,3.8,4.54-3.8Z" transform="translate(-1 -1)"/></svg>