<svg id="settlement-deductible" xmlns="http://www.w3.org/2000/svg" viewBox="0 0 510 510"><circle class="color-one" cx="255" cy="255" r="255"/><polygon class="white" points="385.59 263.1 356.92 74 153.08 74 124.42 263.1 85 263.1 255 436 425 263.1 385.59 263.1"/><path class="color-two" d="M294.55,303.92q-9.44,10.29-27.36,13.19V336h-19V317.78a93.3,93.3,0,0,1-22.54-4.33,63.25,63.25,0,0,1-17.61-8.6L218.32,280a64.54,64.54,0,0,0,17.29,8.51A61.63,61.63,0,0,0,255,291.74q18.07,0,18.08-9.69,0-5.12-5.15-7.58t-16.58-5.2a147.92,147.92,0,0,1-20.95-6.21,35.23,35.23,0,0,1-14.44-10.64q-6-7.3-6-19.74a35.34,35.34,0,0,1,9.84-25.1q9.84-10.49,28.41-12.86V176h19v18.38a87.87,87.87,0,0,1,17.37,3.4,62.42,62.42,0,0,1,14.84,6.64l-9.68,25q-15.87-9.19-30.79-9.2-9.36,0-13.64,3A9,9,0,0,0,241,231q0,4.77,5.07,7.15t16.35,4.94a143,143,0,0,1,21,6.21,36.39,36.39,0,0,1,14.44,10.55q6.11,7.23,6.11,19.66A34.93,34.93,0,0,1,294.55,303.92Z" transform="translate(-1 -1)"/></svg>