<svg id="settlement-deductible" xmlns="http://www.w3.org/2000/svg" viewBox="0 0 510 510"><circle class="color-one" cx="255" cy="255" r="255"/><path class="white"d="M329.5,88v52.5H382V424H130V88Z" transform="translate(-1 -1)"/><path class="color-two" d="M329.5,88,382,140.5H329.5ZM294,231.75H146v10.5H294Zm0,42H146v-10.5H294Zm0,31.5H146v-10.5H294Zm-22,31.5H146v-10.5H272Zm73.64,46a11.91,11.91,0,0,1-6.84,3V390H334v-4.1a26.07,26.07,0,0,1-5.64-1A16.55,16.55,0,0,1,324,383l2.58-5.59a18.09,18.09,0,0,0,9.16,2.64c3,0,4.52-.73,4.52-2.18a1.81,1.81,0,0,0-1.28-1.7,24.69,24.69,0,0,0-4.15-1.17,41.71,41.71,0,0,1-5.24-1.4A9,9,0,0,1,326,371.2a6.36,6.36,0,0,1-1.5-4.45,7.56,7.56,0,0,1,2.46-5.65,11.92,11.92,0,0,1,7.1-2.89V354h4.76v4.14a23.57,23.57,0,0,1,4.34.76,16,16,0,0,1,3.71,1.5L344.43,366a16.62,16.62,0,0,0-7.7-2.07,6.62,6.62,0,0,0-3.41.67,2,2,0,0,0-1.07,1.74,1.73,1.73,0,0,0,1.27,1.61,23.2,23.2,0,0,0,4.09,1.11,38.58,38.58,0,0,1,5.25,1.4,9.06,9.06,0,0,1,3.61,2.37,6.21,6.21,0,0,1,1.53,4.43A7.45,7.45,0,0,1,345.64,382.78ZM146,364.31h7.05a9.6,9.6,0,0,1,4.35.94,7,7,0,0,1,2.94,2.68,8.41,8.41,0,0,1,0,8.14,7,7,0,0,1-2.94,2.68,9.6,9.6,0,0,1-4.35.94H146Zm6.88,11.91A4.23,4.23,0,0,0,156,375.1a4.72,4.72,0,0,0,0-6.2,4.23,4.23,0,0,0-3.08-1.12h-2.66v8.44Zm22.7.11v3.36h-12V364.31h11.7v3.36h-7.52v2.59h6.63v3.26h-6.63v2.81Zm2.34-12H185a9.66,9.66,0,0,1,4.35.94,7.07,7.07,0,0,1,2.94,2.68,8.48,8.48,0,0,1,0,8.14,7.07,7.07,0,0,1-2.94,2.68,9.66,9.66,0,0,1-4.35.94h-7.06Zm6.89,11.91a4.24,4.24,0,0,0,3.08-1.12,4.72,4.72,0,0,0,0-6.2,4.24,4.24,0,0,0-3.08-1.12h-2.67v8.44Zm12.43,1.91a7.2,7.2,0,0,1-1.84-5.29v-8.53h4.22v8.39q0,3.71,2.83,3.7t2.82-3.7v-8.39h4.15v8.53a7.2,7.2,0,0,1-1.84,5.29,8.08,8.08,0,0,1-10.34,0Zm18.27.85a7.44,7.44,0,0,1-2.93-2.85,8.51,8.51,0,0,1,0-8.26,7.44,7.44,0,0,1,2.93-2.85,8.6,8.6,0,0,1,4.21-1,8.74,8.74,0,0,1,3.68.75,7,7,0,0,1,2.73,2.15l-2.68,2.51a4.39,4.39,0,0,0-3.52-1.81,4.28,4.28,0,0,0-2.16.55,3.72,3.72,0,0,0-1.47,1.55,5.26,5.26,0,0,0,0,4.6,3.72,3.72,0,0,0,1.47,1.55,4.28,4.28,0,0,0,2.16.55,4.37,4.37,0,0,0,3.52-1.81l2.68,2.51a7,7,0,0,1-2.73,2.15,8.74,8.74,0,0,1-3.68.75A8.6,8.6,0,0,1,215.51,379Zm15.54-11.22h-4.58v-3.45h13.36v3.45h-4.56v11.93h-4.22Zm10.36-3.45h4.22v15.38h-4.22Zm20.69,8.8a3.81,3.81,0,0,1,.73,2.36,3.58,3.58,0,0,1-1.58,3.12,7.88,7.88,0,0,1-4.56,1.1h-8.06V364.31h7.63a7.27,7.27,0,0,1,4.35,1.09,3.42,3.42,0,0,1,1.49,2.93,3.74,3.74,0,0,1-.52,2,3.7,3.7,0,0,1-1.48,1.37A4.2,4.2,0,0,1,262.1,373.11Zm-9.29-5.66v3h2.9q2.13,0,2.13-1.5t-2.13-1.47Zm5.76,7.54q0-1.56-2.22-1.56h-3.54v3.12h3.54Q258.57,376.55,258.57,375ZM265,364.31h4.22v11.93h7.12v3.45H265Zm25,12v3.36H278V364.31h11.7v3.36H282.2v2.59h6.63v3.26H282.2v2.81ZM167.34,158a10.86,10.86,0,0,1,0,20,17.45,17.45,0,0,1-7.26,1.39h-5.37v8.05H146V156.6h14.08A17.45,17.45,0,0,1,167.34,158Zm-3.74,13.33A4.14,4.14,0,0,0,165,168a4.2,4.2,0,0,0-1.36-3.35,6,6,0,0,0-4-1.19h-4.84v9h4.84A6.08,6.08,0,0,0,163.6,171.32ZM185.18,186a15.76,15.76,0,0,1,0-27.9,19.66,19.66,0,0,1,17.56,0,15.76,15.76,0,0,1,0,27.9,19.66,19.66,0,0,1-17.56,0Zm13-6.25a7.92,7.92,0,0,0,3-3.1,10.17,10.17,0,0,0,0-9.2,7.92,7.92,0,0,0-3-3.1,8.64,8.64,0,0,0-8.44,0,7.92,7.92,0,0,0-3,3.1,10.17,10.17,0,0,0,0,9.2,7.92,7.92,0,0,0,3,3.1,8.64,8.64,0,0,0,8.44,0Zm17.47-23.1h8.71v23.89h14.7v6.91H215.65Zm26.84,0h8.71v30.8h-8.71ZM264.07,186a15.31,15.31,0,0,1-6.05-5.7,16.64,16.64,0,0,1,0-16.54,15.31,15.31,0,0,1,6.05-5.7,18.3,18.3,0,0,1,8.69-2.05,18.64,18.64,0,0,1,7.62,1.5,14.73,14.73,0,0,1,5.63,4.31l-5.55,5a9.09,9.09,0,0,0-7.26-3.61,9,9,0,0,0-4.46,1.1,7.63,7.63,0,0,0-3,3.1,10.34,10.34,0,0,0,0,9.2,7.63,7.63,0,0,0,3,3.1,9,9,0,0,0,4.46,1.1,9.09,9.09,0,0,0,7.26-3.61l5.55,5a14.73,14.73,0,0,1-5.63,4.31,18.64,18.64,0,0,1-7.62,1.5A18.3,18.3,0,0,1,264.07,186Zm42.18-9.61v11h-8.71V176.22L285.79,156.6H295l7.31,12.23,7.3-12.23H318Z" transform="translate(-1 -1)"/></svg>