<svg id="inventory-item-details" xmlns="http://www.w3.org/2000/svg" viewBox="0 0 510 510"><circle class="color-one" cx="255" cy="255" r="255"/><polygon class="white" points="392 98.6 372.51 79 352.93 98.6 333.34 79 313.76 98.6 294.17 79 274.59 98.6 255 79 235.41 98.6 235.41 98.6 215.83 79 196.24 98.6 176.66 79 157.07 98.6 137.49 79 118 98.6 118 411.4 118 411.4 118 411.4 137.49 431 157.07 411.4 157.07 411.4 157.07 411.4 157.07 411.4 176.66 431 196.24 411.4 196.24 411.4 196.24 411.4 196.24 411.4 215.83 431 235.41 411.4 235.41 411.4 235.41 411.4 235.41 411.4 255 431 274.59 411.4 274.59 411.4 274.59 411.4 274.59 411.4 294.17 431 313.76 411.4 313.76 411.4 313.76 411.4 313.76 411.4 333.34 431 352.93 411.4 352.93 411.4 352.93 411.4 352.93 411.4 372.51 431 392 411.4 392 411.4 392 411.4 392 98.6"/><path class="color-two" d="M132,170H380v4H132Zm0,170H380v-4H132ZM172.52,320H180L168.74,294.5h-7.09L150.41,320h7.35l2-4.94h10.76ZM161.87,309.7l3.27-8.15,3.27,8.15Zm36.86,4a9.16,9.16,0,0,1-3.89.84,7.44,7.44,0,0,1-3.74-.93,6.59,6.59,0,0,1-2.55-2.58,7.78,7.78,0,0,1-.91-3.76,6.84,6.84,0,0,1,7.28-7.28,8.11,8.11,0,0,1,6.18,2.84l4.58-4.15a12.37,12.37,0,0,0-4.73-3.45,16.26,16.26,0,0,0-6.4-1.2,15.54,15.54,0,0,0-7.31,1.69,12.61,12.61,0,0,0-5.05,4.71,13.74,13.74,0,0,0,0,13.67,12.6,12.6,0,0,0,5,4.71,15.12,15.12,0,0,0,7.2,1.69,19.87,19.87,0,0,0,5.67-.84,16.62,16.62,0,0,0,5-2.4V306.68h-6.36Zm18.07.73v-4.66h11.31v-5.38H216.8v-4.29h12.84V294.5h-20V320h20.43v-5.56Zm-39.92-49.93a5.21,5.21,0,0,1-3.85,1.78,3.65,3.65,0,0,1-1.55-.33,4.64,4.64,0,0,1-1.43-1.12,12.88,12.88,0,0,0,6.3-4.71A13,13,0,0,0,171.81,241a16.25,16.25,0,0,0-14.51,0,13.21,13.21,0,0,0-5.45,17.6,12.73,12.73,0,0,0,4,4.58,14,14,0,0,0,5.89,2.36,28.63,28.63,0,0,0,3.87,3.51,12,12,0,0,0,3.44,1.8,12.26,12.26,0,0,0,3.81.55,9.83,9.83,0,0,0,4-.82,8.44,8.44,0,0,0,3.11-2.38Zm-19.19-12a7.82,7.82,0,0,1,.9-3.8,6.5,6.5,0,0,1,2.48-2.56,7.15,7.15,0,0,1,7,0,6.55,6.55,0,0,1,2.47,2.56,8.39,8.39,0,0,1,0,7.6,6.61,6.61,0,0,1-2.47,2.56,7.15,7.15,0,0,1-7,0,6.57,6.57,0,0,1-2.48-2.56A7.85,7.85,0,0,1,157.69,252.5Zm29.84,12.72h7.2V245.48h7.78v-5.71H179.72v5.71h7.81ZM228,239.77h-7l-6,10.11-6-10.11h-7.6L211,256v9.23h7.2V256.1Zm-63.55-23.23a15.29,15.29,0,0,0,6.29-1.24,12,12,0,0,0,4.65-3.56l-4.58-4.14a7.53,7.53,0,0,1-6,3,7.42,7.42,0,0,1-3.69-.91,6.31,6.31,0,0,1-2.51-2.56,8.56,8.56,0,0,1,0-7.6,6.28,6.28,0,0,1,2.51-2.57,7.42,7.42,0,0,1,3.69-.91,7.51,7.51,0,0,1,6,3l4.58-4.15a12,12,0,0,0-4.65-3.56,15.29,15.29,0,0,0-6.29-1.24,15.13,15.13,0,0,0-7.18,1.69,12.67,12.67,0,0,0-5,4.71,13.74,13.74,0,0,0,0,13.67,12.67,12.67,0,0,0,5,4.71A15,15,0,0,0,164.41,216.54Zm26.43,0a15.26,15.26,0,0,0,7.26-1.71,13,13,0,0,0,0-23.05,16.25,16.25,0,0,0-14.51,0,13,13,0,0,0,0,23.05A15.19,15.19,0,0,0,190.84,216.54Zm0-6a6.88,6.88,0,0,1-3.49-.91,6.61,6.61,0,0,1-2.47-2.56,8.39,8.39,0,0,1,0-7.6,6.57,6.57,0,0,1,2.47-2.57,7.15,7.15,0,0,1,7,0,6.53,6.53,0,0,1,2.48,2.57,8.47,8.47,0,0,1,0,7.6,6.57,6.57,0,0,1-2.48,2.56A6.85,6.85,0,0,1,190.84,210.58Zm26.87,6a15.45,15.45,0,0,0,6.18-1.11,8.72,8.72,0,0,0,3.82-3,7.16,7.16,0,0,0,1.27-4.15,6,6,0,0,0-1.4-4.2,8.28,8.28,0,0,0-3.31-2.25,36.52,36.52,0,0,0-4.82-1.33,20.81,20.81,0,0,1-3.74-1,1.65,1.65,0,0,1-1.16-1.53,1.88,1.88,0,0,1,1-1.65,5.86,5.86,0,0,1,3.13-.64,14.94,14.94,0,0,1,7.05,2l2.22-5.34a15,15,0,0,0-4.29-1.65,21.73,21.73,0,0,0-4.95-.57,15.78,15.78,0,0,0-6.2,1.09,8.57,8.57,0,0,0-3.8,3,7.32,7.32,0,0,0-1.27,4.19,6.15,6.15,0,0,0,1.38,4.22,8.1,8.1,0,0,0,3.31,2.27,35.26,35.26,0,0,0,4.8,1.33,22,22,0,0,1,3.8,1.11,1.71,1.71,0,0,1,1.18,1.62q0,2.07-4.14,2.07a15.09,15.09,0,0,1-4.44-.69,15.36,15.36,0,0,1-4-1.82L207,213.74a14.67,14.67,0,0,0,4.72,2A23.5,23.5,0,0,0,217.71,216.54Zm19.63-.51h7.2V196.29h7.78v-5.71H229.53v5.71h7.81ZM280,311.2l5.2-4.91a13.25,13.25,0,0,0,3-3.69,7.82,7.82,0,0,0,.78-3.45,6,6,0,0,0-1.05-3.54,6.82,6.82,0,0,0-2.94-2.33,11,11,0,0,0-4.41-.82,12.28,12.28,0,0,0-5.34,1.11,8.93,8.93,0,0,0-3.65,3.09l3.82,2.45a5,5,0,0,1,2-1.69,6.16,6.16,0,0,1,2.68-.57,4.24,4.24,0,0,1,2.7.73,2.5,2.5,0,0,1,.92,2.08,4.14,4.14,0,0,1-.48,1.89,9.25,9.25,0,0,1-1.88,2.28l-8.72,8.24v3.4h17.09V311.2Zm25.43-13.12-4.91,11.79-4.88-11.79h-5.21L298,315.59l-.06.17a4.31,4.31,0,0,1-1.16,1.66,2.73,2.73,0,0,1-1.68.5,4.3,4.3,0,0,1-1.51-.29,4.25,4.25,0,0,1-1.34-.81l-1.84,3.59a5.85,5.85,0,0,0,2.16,1.16,8.88,8.88,0,0,0,2.69.42,7.34,7.34,0,0,0,4.25-1.22,9.05,9.05,0,0,0,3-4.24l7.86-18.45Zm5.91-5.24v8H316v-3.68h7.49l-8.11,18.36h5.69l8.4-19.23v-3.4Zm43.15,5a8.54,8.54,0,0,0-3.57.74,7.13,7.13,0,0,0-2.7,2.11,5.89,5.89,0,0,0-2.39-2.12,7.46,7.46,0,0,0-3.33-.73,8.17,8.17,0,0,0-3.09.58,6.32,6.32,0,0,0-2.37,1.68v-2h-4.82v17.39h5v-8.73a5,5,0,0,1,1-3.41,3.55,3.55,0,0,1,2.77-1.15q3.3,0,3.3,4.11v9.18h5v-8.73a5,5,0,0,1,1-3.41,3.6,3.6,0,0,1,2.81-1.15,3,3,0,0,1,2.44,1,4.73,4.73,0,0,1,.85,3.09v9.18h5v-10c0-2.56-.65-4.48-1.93-5.77A7,7,0,0,0,354.48,297.82ZM351.83,244v4.21h4.52v18.42h5.24V244Zm-46-42.41a3,3,0,0,0-.63-2,3.88,3.88,0,0,0-1.53-1.15,13.19,13.19,0,0,0-2.23-.69v-3.2a7.42,7.42,0,0,1,2.88,1l.94-2.32a8.32,8.32,0,0,0-3.82-1.15V190h-1.89v2.09a5.45,5.45,0,0,0-3.29,1.36,3.65,3.65,0,0,0-1.14,2.69,3.05,3.05,0,0,0,.63,2,3.93,3.93,0,0,0,1.54,1.16,13.43,13.43,0,0,0,2.26.72v3.15a7.92,7.92,0,0,1-2-.46,6.75,6.75,0,0,1-1.67-.88l-1,2.3a6.58,6.58,0,0,0,2,1,10,10,0,0,0,2.65.49v2.06h1.89v-2.11a5.51,5.51,0,0,0,3.26-1.37A3.58,3.58,0,0,0,305.8,201.59ZM298.13,196a1.22,1.22,0,0,1,.34-.86,2.12,2.12,0,0,1,1-.54v2.68a2.9,2.9,0,0,1-1-.51A1,1,0,0,1,298.13,196Zm3.28,7.12v-2.6a3,3,0,0,1,1,.53,1,1,0,0,1,.35.77,1.1,1.1,0,0,1-.34.81A2,2,0,0,1,301.41,203.12Zm5.14-9.52v4.2h4.52v18.42h5.24V193.6Zm23.4,23a9.25,9.25,0,0,0,5-1.38,9.37,9.37,0,0,0,3.44-4,16.55,16.55,0,0,0,0-12.57,9.29,9.29,0,0,0-3.44-4,9.24,9.24,0,0,0-13.46,4,16.43,16.43,0,0,0,0,12.57,9.31,9.31,0,0,0,3.44,4A9.2,9.2,0,0,0,330,216.6Zm0-4.42a3.67,3.67,0,0,1-3.22-1.78,13.38,13.38,0,0,1,0-11,3.84,3.84,0,0,1,6.47,0,13.38,13.38,0,0,1,0,11A3.7,3.7,0,0,1,330,212.18Zm21.94,4.42a9.25,9.25,0,0,0,5-1.38,9.37,9.37,0,0,0,3.44-4,16.43,16.43,0,0,0,0-12.57,9.29,9.29,0,0,0-3.44-4,9.24,9.24,0,0,0-13.46,4,16.43,16.43,0,0,0,0,12.57,8.94,8.94,0,0,0,8.45,5.41Zm0-4.42a3.67,3.67,0,0,1-3.22-1.78,13.38,13.38,0,0,1,0-11,3.84,3.84,0,0,1,6.47,0,13.38,13.38,0,0,1,0,11A3.7,3.7,0,0,1,351.89,212.18Z" transform="translate(-1 -1)"/></svg>