<svg id="receipts" xmlns="http://www.w3.org/2000/svg" viewBox="0 0 510 510"><circle class="color-one" cx="255" cy="255" r="255"/><path class="white" d="M329.5,88v52.5H382V424H130V88Z" transform="translate(-1 -1)"/><path class="color-two" d="M329.5,88,382,140.5H329.5ZM294,231.75H146v10.5H294Zm0,42H146v-10.5H294Zm0,31.5H146v-10.5H294Zm-22,31.5H146v-10.5H272Zm76-120.22-6.43-6.28-20,19.44-7.18-7L308,229l13.61,13.29Zm-26.39,57.22L308,260.46l6.43-6.28,7.18,7,20-19.44L348,248Zm0,31.5L308,292l6.43-6.28,7.18,7,20-19.44,6.43,6.28Zm16,37.28a11.91,11.91,0,0,1-6.84,3v4.25H326v-4.1a26.07,26.07,0,0,1-5.64-1,16.55,16.55,0,0,1-4.4-1.94l2.58-5.59a18.09,18.09,0,0,0,9.16,2.64c3,0,4.52-.73,4.52-2.18a1.81,1.81,0,0,0-1.28-1.7,24.69,24.69,0,0,0-4.15-1.17,41.71,41.71,0,0,1-5.24-1.4A9,9,0,0,1,318,331a6.36,6.36,0,0,1-1.5-4.45,7.56,7.56,0,0,1,2.46-5.65A11.92,11.92,0,0,1,326,318v-4.21h4.76v4.14a23.57,23.57,0,0,1,4.34.76,16,16,0,0,1,3.71,1.5l-2.42,5.63a16.62,16.62,0,0,0-7.7-2.07,6.62,6.62,0,0,0-3.41.67,2,2,0,0,0-1.07,1.74,1.73,1.73,0,0,0,1.27,1.61,23.2,23.2,0,0,0,4.09,1.11,38.58,38.58,0,0,1,5.25,1.4,9.06,9.06,0,0,1,3.61,2.37A6.21,6.21,0,0,1,340,337,7.45,7.45,0,0,1,337.64,342.53ZM159.46,179.22h-4.75v8.18H146V156.6h14.08a17.45,17.45,0,0,1,7.26,1.39,10.8,10.8,0,0,1,.4,19.73l6.64,9.68h-9.33Zm4.14-14.57a6,6,0,0,0-4-1.19h-4.84v9h4.84a6.08,6.08,0,0,0,4-1.16A4.14,4.14,0,0,0,165,168,4.2,4.2,0,0,0,163.6,164.65Zm39.69,16v6.73H178.56V156.6h24.16v6.73H187.18v5.19h13.69V175H187.18v5.63Zm11.46,5.3a15.24,15.24,0,0,1-6.05-5.7,16.64,16.64,0,0,1,0-16.54,15.24,15.24,0,0,1,6.05-5.7,18.28,18.28,0,0,1,8.69-2.05,18.59,18.59,0,0,1,7.61,1.5,14.58,14.58,0,0,1,5.63,4.31l-5.54,5a9.28,9.28,0,0,0-11.73-2.51,7.67,7.67,0,0,0-3,3.1,10.34,10.34,0,0,0,0,9.2,7.67,7.67,0,0,0,3,3.1,9.28,9.28,0,0,0,11.73-2.51l5.54,5a14.58,14.58,0,0,1-5.63,4.31,18.59,18.59,0,0,1-7.61,1.5A18.28,18.28,0,0,1,214.75,186Zm50.53-5.3v6.73H240.56V156.6h24.15v6.73H249.18v5.19h13.68V175H249.18v5.63Zm4.84-24.07h8.72v30.8h-8.72ZM306.38,158a10.86,10.86,0,0,1,0,20,17.45,17.45,0,0,1-7.26,1.39h-5.37v8.05H285V156.6h14.08A17.45,17.45,0,0,1,306.38,158Zm-3.74,13.33A4.14,4.14,0,0,0,304,168a4.2,4.2,0,0,0-1.36-3.35,6,6,0,0,0-4.05-1.19h-4.84v9h4.84A6.08,6.08,0,0,0,302.64,171.32Zm20.2-7.81h-9.46V156.6H341v6.91h-9.41V187.4h-8.71Zm24.86,23.58a17.93,17.93,0,0,1-5.73-2.46l2.86-6.43a19.57,19.57,0,0,0,10.17,3q5,0,5-2.51a2.07,2.07,0,0,0-1.43-2,26.7,26.7,0,0,0-4.59-1.34,44.21,44.21,0,0,1-5.81-1.6,9.89,9.89,0,0,1-4-2.75A7.49,7.49,0,0,1,342.5,166a8.89,8.89,0,0,1,1.54-5.08,10.33,10.33,0,0,1,4.6-3.59,18.93,18.93,0,0,1,7.5-1.32,26.21,26.21,0,0,1,6,.69,18.28,18.28,0,0,1,5.19,2l-2.69,6.47a17.83,17.83,0,0,0-8.53-2.38,7.17,7.17,0,0,0-3.78.77,2.29,2.29,0,0,0-1.19,2,2,2,0,0,0,1.41,1.85,25,25,0,0,0,4.53,1.28,41.86,41.86,0,0,1,5.83,1.6,10,10,0,0,1,4,2.73,7.28,7.28,0,0,1,1.69,5.08,8.66,8.66,0,0,1-1.54,5,10.42,10.42,0,0,1-4.62,3.58A18.54,18.54,0,0,1,355,188,28.23,28.23,0,0,1,347.7,187.09Z" transform="translate(-1 -1)"/></svg>