<svg id="inventory-item-description" xmlns="http://www.w3.org/2000/svg" viewBox="0 0 510 510"><circle id="color-one" cx="255" cy="255" r="255"/><path class="color-two" d="M86,266H424l23.73,10a17.25,17.25,0,0,0,3.74-5.55c5-11.79-2.83-26.42-17.59-32.67-8.28-3.53-63.16-23.49-110.87-38.42-.1,0-.2-.1-.3-.1a53.28,53.28,0,0,1-32.35-29C283.39,154.49,270.55,144,256,144s-27.29,10.49-34.36,26.22a53,53,0,0,1-32.35,29c-.1,0-.2.1-.3.1C141.28,214.18,86.4,234.25,78.12,237.78c-14.76,6.35-22.64,21-17.59,32.67A20.45,20.45,0,0,0,64.27,276Zm26.44-10L256,196.54,400,256Zm188.92,75.68L262.13,295A8.88,8.88,0,0,0,250,295l-39.23,36.83a8.68,8.68,0,0,0-2.74,6.33v93.13a8.78,8.78,0,0,0,8.82,8.73h78.35a8.78,8.78,0,0,0,8.82-8.73V338.14A8.32,8.32,0,0,0,301.36,331.71Zm-45.31-7a8.63,8.63,0,1,1,8.71-8.63A8.68,8.68,0,0,1,256.05,324.69Zm-2.28-17a8.77,8.77,0,0,0-6,5.32c-2.43-3.11-4.87-6.23-7-9.54l5.87-5.52A95.83,95.83,0,0,0,253.77,307.73Z" transform="translate(-1 -1)"/><path class="white" d="M232,95.81A24,24,0,0,1,256.94,72a24,24,0,0,1,23,22.9,23.75,23.75,0,0,1-7.88,18.64A31.43,31.43,0,0,0,261.92,137v7a30.4,30.4,0,0,0-12,0v-7.15A43,43,0,0,1,264,104.73a12.1,12.1,0,1,0-16.56-17.64,11.87,11.87,0,0,0-3.69,8.72,5.81,5.81,0,0,1-5.88,5.85A5.87,5.87,0,0,1,232,95.81ZM219,415h74V377H219Zm50.28-118.31a34,34,0,0,1-.91,4.11L262.18,295a2.88,2.88,0,0,0-.71-.5c.81-5.62.51-11.44.21-17.26L261.07,266h8l.6,10.82C270,283.24,270.29,289.86,269.28,296.69Zm-5,16.46c-.1.2-.2.5-.3.7a9.92,9.92,0,0,1-1.73,2.81,6.38,6.38,0,0,1-5,2.21c-4.26,0-7.6-3.52-8.52-4.62-.2-.3-.5-.6-.81-1-2.43-3.11-4.86-6.22-7-9.54a113.27,113.27,0,0,1-15.21-33.62c-.3-1.6-.71-3.21-.91-4.81a15.27,15.27,0,0,1,.71-7,12.57,12.57,0,0,1,2-3.61,23.8,23.8,0,0,1,5.78-5c5.87-3.71,11.35-5.62,16.72-5.62,7.3,0,13.79,3.51,16.73,9.13.3.5.95,2.37,1.15,2.87H258c-1.93-1.81-4.77-4.17-7.81-4.17a20.1,20.1,0,0,0-9.73,2.81c-.91.5-1.92,1-2.84,1.6-1.82,1.11-4,2.71-4.66,4.72a7.17,7.17,0,0,0-.2,4.22,15.16,15.16,0,0,0,.61,2.81,103.2,103.2,0,0,0,13.27,30,95.83,95.83,0,0,0,7.1,9.74c.3.4.71.8,1,1.2a7.41,7.41,0,0,0,1.73,1.51c.4-.91.71-1.91,1.11-2.81A9.44,9.44,0,0,1,264.31,313.15Z" transform="translate(-1 -1)"/></svg>