<svg id="settlement-report" xmlns="http://www.w3.org/2000/svg" viewBox="0 0 510 510"><circle class="color-one" cx="255" cy="255" r="255"/><path class="white" d="M329.5,88v52.5H382V424H130V88Z" transform="translate(-1 -1)"/><path class="color-two" d="M329.5,88,382,140.5H329.5ZM294,231.75H146v10.5H294Zm0,42H146v-10.5H294Zm0,31.5H146v-10.5H294Zm-22,31.5H146v-10.5H272Zm76-120.22-6.43-6.28-20,19.44-7.18-7L308,229l13.61,13.29Zm-26.39,57.22L308,260.46l6.43-6.28,7.18,7,20-19.44L348,248Zm0,31.5L308,292l6.43-6.28,7.18,7,20-19.44,6.43,6.28Zm16,37.28a11.91,11.91,0,0,1-6.84,3v4.25H326v-4.1a26.07,26.07,0,0,1-5.64-1,16.55,16.55,0,0,1-4.4-1.94l2.58-5.59a18.09,18.09,0,0,0,9.16,2.64c3,0,4.52-.73,4.52-2.18a1.81,1.81,0,0,0-1.28-1.7,24.69,24.69,0,0,0-4.15-1.17,41.71,41.71,0,0,1-5.24-1.4A9,9,0,0,1,318,331a6.36,6.36,0,0,1-1.5-4.45,7.56,7.56,0,0,1,2.46-5.65A11.92,11.92,0,0,1,326,318v-4.21h4.76v4.14a23.57,23.57,0,0,1,4.34.76,16,16,0,0,1,3.71,1.5l-2.42,5.63a16.62,16.62,0,0,0-7.7-2.07,6.62,6.62,0,0,0-3.41.67,2,2,0,0,0-1.07,1.74,1.73,1.73,0,0,0,1.27,1.61,23.2,23.2,0,0,0,4.09,1.11,38.58,38.58,0,0,1,5.25,1.4,9.06,9.06,0,0,1,3.61,2.37A6.21,6.21,0,0,1,340,337,7.45,7.45,0,0,1,337.64,342.53ZM159.46,179.22h-4.75v8.18H146V156.6h14.08a17.45,17.45,0,0,1,7.26,1.39,10.8,10.8,0,0,1,.4,19.73l6.64,9.68h-9.33Zm4.14-14.57a6,6,0,0,0-4-1.19h-4.84v9h4.84a6.08,6.08,0,0,0,4-1.16A4.14,4.14,0,0,0,165,168,4.2,4.2,0,0,0,163.6,164.65Zm39.69,16v6.73H178.56V156.6h24.16v6.73H187.18v5.19h13.69V175H187.18v5.63ZM229.47,158a10.76,10.76,0,0,1,4.75,4,10.85,10.85,0,0,1-4.75,16,17.51,17.51,0,0,1-7.26,1.39h-5.37v8.05h-8.71V156.6h14.08A17.51,17.51,0,0,1,229.47,158Zm-3.74,13.33a4.14,4.14,0,0,0,1.36-3.32,4.2,4.2,0,0,0-1.36-3.35,6,6,0,0,0-4-1.19h-4.84v9h4.84A6.08,6.08,0,0,0,225.73,171.32ZM247.31,186a15.75,15.75,0,0,1,0-27.9,19.66,19.66,0,0,1,17.56,0,15.76,15.76,0,0,1,0,27.9,19.66,19.66,0,0,1-17.56,0Zm13-6.25a7.9,7.9,0,0,0,3-3.1,10.17,10.17,0,0,0,0-9.2,7.9,7.9,0,0,0-3-3.1,8.66,8.66,0,0,0-8.45,0,7.9,7.9,0,0,0-3,3.1,10.17,10.17,0,0,0,0,9.2,7.9,7.9,0,0,0,3,3.1,8.66,8.66,0,0,0,8.45,0Zm30.93-.48h-4.75v8.18h-8.71V156.6h14.08a17.45,17.45,0,0,1,7.26,1.39,10.8,10.8,0,0,1,.4,19.73l6.64,9.68h-9.33Zm4.14-14.57a6,6,0,0,0-4.05-1.19h-4.84v9h4.84a6.08,6.08,0,0,0,4.05-1.16,4.14,4.14,0,0,0,1.36-3.32A4.2,4.2,0,0,0,295.38,164.65Zm21.08-1.14H307V156.6h27.58v6.91h-9.41V187.4h-8.71Z" transform="translate(-1 -1)"/></svg>