<svg id="inventory-add-attachments" xmlns="http://www.w3.org/2000/svg" viewBox="0 0 510 510"><circle class="color-one" cx="255" cy="255" r="255"/><path class="white" d="M233.89,429A55.6,55.6,0,0,1,178,373.46V160.51C178,117.76,213,83,256,83s78,34.76,78,77.51V264a10.05,10.05,0,0,1-20.1,0V160.51a57.9,57.9,0,0,0-115.8,0v213a35.79,35.79,0,0,0,71.57,0V163.71a16.08,16.08,0,0,0-32.16,0V299.55a10.06,10.06,0,0,1-20.11,0V163.71a36.19,36.19,0,0,1,72.37,0V373.46A55.59,55.59,0,0,1,233.89,429Z" transform="translate(-1 -1)"/></svg>