<svg id="settlement-review" xmlns="http://www.w3.org/2000/svg" viewBox="0 0 510 510"><circle class="color-one" cx="255" cy="255" r="255"/><path class="white" d="M420,136H408c0,104.62-68.17,190.14-152,190.14S104,241,104,136H92c0,108.89,70.53,198,158,201.93V352h12V337.93C349.47,334,420,244.89,420,136Z" transform="translate(-1 -1)"/><path d="M288.65,340.64c-8.37-3.19-19.13-1.6-27.91,6L256,351.39a27.27,27.27,0,0,0-4.78-4.78c-9.17-8-19.94-9.16-27.91-6-23.53,8.76-29.11,43-8.77,64.54L256,449l41.86-44.22C317.76,383.66,312.18,349.8,288.65,340.64Z" transform="translate(-1 -1)" fill="#d0021b"/></svg>