<svg id="category-review" xmlns="http://www.w3.org/2000/svg" viewBox="0 0 510 510"><circle class="color-one" cx="255" cy="255" r="255"/><path class="white" d="M329.5,88v52.5H382V424H130V88Z" transform="translate(-1 -1)"/><path class="color-two" d="M329.5,88,382,140.5H329.5ZM294,231.75H146v10.5H294Zm0,42H146v-10.5H294Zm0,31.5H146v-10.5H294Zm-22,31.5H146v-10.5H272Zm76-120.22-6.43-6.28-20,19.44-7.18-7L308,229l13.61,13.29Zm-26.39,57.22L308,260.46l6.43-6.28,7.18,7,20-19.44L348,248Zm0,31.5L308,292l6.43-6.28,7.18,7,20-19.44,6.43,6.28Zm-162.15-126h-4.75v8.18H146V156.6h14.08a17.45,17.45,0,0,1,7.26,1.39,10.8,10.8,0,0,1,.4,19.73l6.64,9.68h-9.33Zm4.14-14.57a6,6,0,0,0-4-1.19h-4.84v9h4.84a6.08,6.08,0,0,0,4-1.16A4.14,4.14,0,0,0,165,168,4.2,4.2,0,0,0,163.6,164.65Zm39.69,16v6.73H178.56V156.6h24.16v6.73H187.18v5.19h13.69V175H187.18v5.63Zm35.64-24.07-13.2,30.8h-8.58L204,156.6h9.42l8.36,20.06,8.53-20.06Zm1.8,0h8.71v30.8h-8.71Zm39.65,24.07v6.73H255.65V156.6H279.8v6.73H264.27v5.19H278V175H264.27v5.63Zm52.71-24.07-10,30.8h-9.33l-5.89-18.74-6.17,18.74h-9.32l-10-30.8h9l6.2,19.67,6.51-19.67h8l6.2,19.84,6.47-19.84Z" transform="translate(-1 -1)"/></svg>