<svg id="personal-property-coverage" xmlns="http://www.w3.org/2000/svg" viewBox="0 0 368 96"><path class="color-one" d="M384,95a48,48,0,1,1-48-48A47.75,47.75,0,0,1,384,95ZM261,93.64h12V90H261Zm0,6.36h12V96.36H261ZM150,95a48,48,0,1,0,48-48A48,48,0,0,0,150,95Zm-23,2h8V93h-8ZM16,95A48,48,0,1,0,64,47,48,48,0,0,0,16,95Z" transform="translate(-16 -47)"/><path class="white" d="M350,63V73h10v54H312V63ZM222.58,96.52,217.19,61H178.81l-5.39,35.52H166L198,129l32-32.48ZM85,120.29V86.81A20.06,20.06,0,0,0,64.69,67H63.3A20,20,0,0,0,43,86.81v33.48A2.79,2.79,0,0,0,45.78,123H82.22A2.67,2.67,0,0,0,85,120.29Z" transform="translate(-16 -47)"/><path class="color-two" d="M350,63l10,10H350Zm-7,21.94a3.36,3.36,0,0,0-.89-2.46A5.47,5.47,0,0,0,340,81.16a23.15,23.15,0,0,0-3.06-.78,14.19,14.19,0,0,1-2.39-.61c-.49-.2-.74-.5-.74-.9a1.12,1.12,0,0,1,.63-1,4.12,4.12,0,0,1,2-.37,10,10,0,0,1,4.49,1.15l1.41-3.13a10.22,10.22,0,0,0-2.17-.83,14.52,14.52,0,0,0-2.53-.42V72h-2.78v2.34A7.13,7.13,0,0,0,330.71,76a4.11,4.11,0,0,0-1.43,3.13,3.39,3.39,0,0,0,.88,2.47,5.1,5.1,0,0,0,2.1,1.33,24,24,0,0,0,3.06.78,14.91,14.91,0,0,1,2.42.65,1,1,0,0,1,.75,1c0,.8-.88,1.21-2.64,1.21A11.11,11.11,0,0,1,330.5,85L329,88.11a10,10,0,0,0,2.57,1.07,15.61,15.61,0,0,0,3.28.54V92h2.78V89.64a7.12,7.12,0,0,0,4-1.65A4,4,0,0,0,343,84.94ZM354,100H318v2h36Zm0,8H318v-2h36Zm0,6H318v-2h36Zm-12,6H318v-2h24ZM205.23,104a8.54,8.54,0,0,1-5.13,2.48V110h-3.57v-3.42a17,17,0,0,1-4.23-.81,11.53,11.53,0,0,1-3.3-1.61l1.93-4.66a12.47,12.47,0,0,0,3.25,1.6,11.69,11.69,0,0,0,3.63.6c2.26,0,3.39-.6,3.39-1.82a1.5,1.5,0,0,0-1-1.42,17.44,17.44,0,0,0-3.11-1,27.84,27.84,0,0,1-3.93-1.17,6.57,6.57,0,0,1-2.7-2,5.6,5.6,0,0,1-1.13-3.7,6.64,6.64,0,0,1,1.84-4.71,8.54,8.54,0,0,1,5.33-2.41V80h3.57v3.45a16.4,16.4,0,0,1,3.25.63,11.69,11.69,0,0,1,2.79,1.25L204.32,90a11.48,11.48,0,0,0-5.77-1.72,4.52,4.52,0,0,0-2.56.56,1.7,1.7,0,0,0-.8,1.45,1.44,1.44,0,0,0,.95,1.34,15.52,15.52,0,0,0,3.07.92,27.73,27.73,0,0,1,3.94,1.17,6.67,6.67,0,0,1,2.7,2A5.48,5.48,0,0,1,207,99.4,6.53,6.53,0,0,1,205.23,104Zm-123,19H45.78A2.79,2.79,0,0,1,43,120.29V86.81A20,20,0,0,1,63.3,67h1.39A20.06,20.06,0,0,1,85,86.81v33.48A2.67,2.67,0,0,1,82.22,123ZM49.51,85.26v30.13a1.08,1.08,0,0,0,1.12,1.1H76.28a1.08,1.08,0,0,0,1.12-1.1l.06-30.08a1.08,1.08,0,0,0-1.12-1.1H50.69A1.16,1.16,0,0,0,49.51,85.26Zm11.65-8.87a3.38,3.38,0,0,0,4.7,0,3.19,3.19,0,0,0,0-4.59,3.39,3.39,0,0,0-4.7,0A3.19,3.19,0,0,0,61.16,76.39Zm11.93,28.05a4.94,4.94,0,0,0-1.2-3.5,7.07,7.07,0,0,0-2.83-1.88A31.76,31.76,0,0,0,64.94,98a17.38,17.38,0,0,1-3.2-.88,1.36,1.36,0,0,1-1-1.27,1.58,1.58,0,0,1,.84-1.38,5.19,5.19,0,0,1,2.67-.53,12.8,12.8,0,0,1,6,1.64l1.9-4.46a12.83,12.83,0,0,0-2.91-1.19,18.73,18.73,0,0,0-3.4-.6V86H62.15v3.34a9.33,9.33,0,0,0-5.57,2.29,6,6,0,0,0-1.93,4.47,5,5,0,0,0,1.19,3.52,7,7,0,0,0,2.82,1.9,31.89,31.89,0,0,0,4.11,1.1,20.06,20.06,0,0,1,3.25.93,1.43,1.43,0,0,1,1,1.35c0,1.15-1.18,1.73-3.55,1.73a13,13,0,0,1-3.79-.58,13.5,13.5,0,0,1-3.39-1.51l-2,4.42a12.89,12.89,0,0,0,3.45,1.54,20.11,20.11,0,0,0,4.42.77v3.25h3.73v-3.37a9.29,9.29,0,0,0,5.36-2.35A6,6,0,0,0,73.09,104.44Z" transform="translate(-16 -47)"/></svg>