<svg id="submit-inventory" xmlns="http://www.w3.org/2000/svg" viewBox="0 0 510 510"><circle class="color-two" cx="255" cy="255" r="255"/><path class="color-one" d="M183.79,315.24h-.68l53.24-52.59Zm72.34-72.11,72.08,72.11h2.13l-73.62-72.7ZM511,256c0,140.83-114.17,255-255,255S1,396.83,1,256,115.17,1,256,1,511,115.17,511,256ZM374.41,130.36H251.32V115.85a7.92,7.92,0,0,0-7.94-7.85H173.49a7.92,7.92,0,0,0-7.94,7.85v14.51H138.94a7.92,7.92,0,0,0-7.94,7.85V341a11,11,0,0,0,11.12,11h73.7v53h80.36V317h.52v35h72.95a11,11,0,0,0,11.12-11V138.21C382,133.89,378.38,130.36,374.41,130.36Z" transform="translate(-1 -1)"/><path class="white" d="M392.27,181H273.32a7,7,0,0,0-6.79,6.78l-.4,19.56a6.64,6.64,0,0,1-6.78,6.38H119.63a5.48,5.48,0,0,0-5.59,6.39l13.58,129.7A6.46,6.46,0,0,0,134,355h81.82V317H182l74-74,74,74H296.18v38h77.73a6.47,6.47,0,0,0,6.39-5.19l17.56-161.63C398.66,183.79,395.87,181,392.27,181Z" transform="translate(-1 -1)"/></svg>