<svg id="receipts" xmlns="http://www.w3.org/2000/svg" viewBox="0 0 510 510"><circle class="color-one" cx="255" cy="255" r="255"/><path class="white" d="M398,149.49V430H143.48V239.55a48.41,48.41,0,0,0,29.35-13.87l74.29-74.28a9.92,9.92,0,0,0-14-14.07l-74.28,74.28a28.09,28.09,0,0,1-15.38,7.93V95.62h84.94l-65.94,65.93a9.91,9.91,0,1,0,14.07,14l74.79-74.77a34.53,34.53,0,0,0,4.22-5.23h88.76v53.87H398ZM233.14,137.43l-74.28,74.28a28.18,28.18,0,0,1-15.38,7.94v19.9a47.86,47.86,0,0,0,29.35-13.87l74.29-74.28a9.88,9.88,0,1,0-14-14Zm22.32-41.81H228.32l-65.94,65.93a9.91,9.91,0,1,0,14.07,14l74.79-74.67a34.53,34.53,0,0,0,4.22-5.23Z" transform="translate(-1 -1)"/><path class="color-two" d="M344.12,95.62,398,149.39H344.12ZM233,137.33l-74.28,74.28a28.13,28.13,0,0,1-15.38,7.93A28.67,28.67,0,0,1,118.15,171l25.33-25.22v-28L104.17,157a48.46,48.46,0,0,0,39.31,82.52,47.86,47.86,0,0,0,29.35-13.87l74.29-74.28a9.89,9.89,0,0,0,0-14.07A10.08,10.08,0,0,0,233,137.33Zm22.42-41.71a34.53,34.53,0,0,1-4.22,5.23l-74.79,74.67a9.91,9.91,0,1,1-14.07-14l74.78-74.77a12.3,12.3,0,0,0-17.39-17.39L193.54,95.62h-28l40.21-40.2a32.17,32.17,0,0,1,49.76,40.2ZM175.74,297.88h190V285.49h-190Zm0,18.78h190v12.39h-190Zm0,31.27h190v12.39h-190Zm0,31.17h190v12.39h-190Z" transform="translate(-1 -1)"/></svg>