<svg id="payments" xmlns="http://www.w3.org/2000/svg" viewBox="0 0 510 510"><circle class="color-one" cx="255" cy="255" r="255"/><polygon class="white" points="181.09 87 181.09 141.12 127 141.12 127 423 383 423 383 87 181.09 87"/><path class="color-two" d="M182.09,142.12H128L182.09,88Zm63.08,81.21a6.83,6.83,0,0,1,3.11-6.06q3.1-2.09,8.52-2.09,8.63,0,22.07,4.57a135.42,135.42,0,0,1,24.68,11.12L319,199.09a99.21,99.21,0,0,0-20.77-9.83,120,120,0,0,0-24.37-5.66V155H244v29.2q-19.67,3.38-30.8,14.7T202,227.1q0,13.91,7,22.45a43.08,43.08,0,0,0,16.65,12.61A177.09,177.09,0,0,0,250,270q13,3.39,19.26,6.46t6.22,8.84a8.35,8.35,0,0,1-3.81,7.35q-3.81,2.58-10.63,2.58-11,0-26.39-6.26a93.89,93.89,0,0,1-26-15.39L193,305a92.29,92.29,0,0,0,23.37,13.61A121.27,121.27,0,0,0,244,326.22V357h29.9V326.61q20.06-2.78,32.4-13.9t12.34-29.6q0-14.3-7.12-23a45.14,45.14,0,0,0-16.76-13,186.52,186.52,0,0,0-24.47-8.44q-13-3.57-19.06-6.65T245.17,223.33Z" transform="translate(-1 -1)"/></svg>