<svg id="contents" xmlns="http://www.w3.org/2000/svg" viewBox="0 0 510 510"><circle class="color-one" cx="255" cy="255" r="255"/><path class="white" d="M291.83,394H220.17a7.16,7.16,0,0,1-7.17-7.14V125.14a7.16,7.16,0,0,1,7.17-7.14h71.66a7.16,7.16,0,0,1,7.17,7.14V386.86A7.16,7.16,0,0,1,291.83,394Zm100,0H320.17a7.16,7.16,0,0,1-7.17-7.14V125.14a7.16,7.16,0,0,1,7.17-7.14h71.66a7.16,7.16,0,0,1,7.17,7.14V386.86A7.16,7.16,0,0,1,391.83,394Zm-200,0H120.17a7.16,7.16,0,0,1-7.17-7.14V125.14a7.16,7.16,0,0,1,7.17-7.14h71.66a7.16,7.16,0,0,1,7.17,7.14V386.86A7.16,7.16,0,0,1,191.83,394Z" transform="translate(-1 -1)"/><path class="color-two" d="M270.25,275h-28.5a4.75,4.75,0,0,1,0-9.5h28.5a4.75,4.75,0,0,1,0,9.5ZM275,220a4.75,4.75,0,0,0-4.75-4.75h-28.5a4.75,4.75,0,0,0,0,9.5h28.5A4.75,4.75,0,0,0,275,220Zm0,25.13a4.75,4.75,0,0,0-4.75-4.75h-28.5a4.75,4.75,0,0,0,0,9.5h28.5A4.75,4.75,0,0,0,275,245.13Zm0-50.25a4.75,4.75,0,0,0-4.75-4.75h-28.5a4.75,4.75,0,0,0,0,9.5h28.5A4.75,4.75,0,0,0,275,194.88Zm0-25.13a4.75,4.75,0,0,0-4.75-4.75h-28.5a4.75,4.75,0,0,0,0,9.5h28.5A4.75,4.75,0,0,0,275,169.75ZM291.83,394H220.17a7.16,7.16,0,0,1-7.17-7.14V125.14a7.16,7.16,0,0,1,7.17-7.14h71.66a7.16,7.16,0,0,1,7.17,7.14V386.86A7.16,7.16,0,0,1,291.83,394Zm-7.16-114.21v-119a4.77,4.77,0,0,0-4.78-4.76H232.11a4.77,4.77,0,0,0-4.78,4.76v119a4.77,4.77,0,0,0,4.78,4.76h47.78A4.77,4.77,0,0,0,284.67,279.79Zm-7.17,47.59A21.5,21.5,0,1,0,256,348.79,21.47,21.47,0,0,0,277.5,327.38ZM256,315.48a11.9,11.9,0,1,0,11.94,11.9A11.93,11.93,0,0,0,256,315.48ZM370.25,275h-28.5a4.75,4.75,0,0,1,0-9.5h28.5a4.75,4.75,0,0,1,0,9.5ZM375,220a4.75,4.75,0,0,0-4.75-4.75h-28.5a4.75,4.75,0,0,0,0,9.5h28.5A4.75,4.75,0,0,0,375,220Zm0,25.13a4.75,4.75,0,0,0-4.75-4.75h-28.5a4.75,4.75,0,0,0,0,9.5h28.5A4.75,4.75,0,0,0,375,245.13Zm0-50.25a4.75,4.75,0,0,0-4.75-4.75h-28.5a4.75,4.75,0,0,0,0,9.5h28.5A4.75,4.75,0,0,0,375,194.88Zm0-25.13a4.75,4.75,0,0,0-4.75-4.75h-28.5a4.75,4.75,0,0,0,0,9.5h28.5A4.75,4.75,0,0,0,375,169.75ZM391.83,394H320.17a7.16,7.16,0,0,1-7.17-7.14V125.14a7.16,7.16,0,0,1,7.17-7.14h71.66a7.16,7.16,0,0,1,7.17,7.14V386.86A7.16,7.16,0,0,1,391.83,394Zm-7.16-114.21v-119a4.77,4.77,0,0,0-4.78-4.76H332.11a4.77,4.77,0,0,0-4.78,4.76v119a4.77,4.77,0,0,0,4.78,4.76h47.78A4.77,4.77,0,0,0,384.67,279.79Zm-7.17,47.59A21.5,21.5,0,1,0,356,348.79,21.47,21.47,0,0,0,377.5,327.38ZM356,315.48a11.9,11.9,0,1,0,11.94,11.9A11.93,11.93,0,0,0,356,315.48ZM170.25,275h-28.5a4.75,4.75,0,0,1,0-9.5h28.5a4.75,4.75,0,0,1,0,9.5ZM175,220a4.75,4.75,0,0,0-4.75-4.75h-28.5a4.75,4.75,0,0,0,0,9.5h28.5A4.75,4.75,0,0,0,175,220Zm0,25.13a4.75,4.75,0,0,0-4.75-4.75h-28.5a4.75,4.75,0,0,0,0,9.5h28.5A4.75,4.75,0,0,0,175,245.13Zm0-50.25a4.75,4.75,0,0,0-4.75-4.75h-28.5a4.75,4.75,0,0,0,0,9.5h28.5A4.75,4.75,0,0,0,175,194.88Zm0-25.13a4.75,4.75,0,0,0-4.75-4.75h-28.5a4.75,4.75,0,0,0,0,9.5h28.5A4.75,4.75,0,0,0,175,169.75ZM191.83,394H120.17a7.16,7.16,0,0,1-7.17-7.14V125.14a7.16,7.16,0,0,1,7.17-7.14h71.66a7.16,7.16,0,0,1,7.17,7.14V386.86A7.16,7.16,0,0,1,191.83,394Zm-7.16-114.21v-119a4.77,4.77,0,0,0-4.78-4.76H132.11a4.77,4.77,0,0,0-4.78,4.76v119a4.77,4.77,0,0,0,4.78,4.76h47.78A4.77,4.77,0,0,0,184.67,279.79Zm-7.17,47.59A21.5,21.5,0,1,0,156,348.79,21.47,21.47,0,0,0,177.5,327.38ZM156,315.48a11.9,11.9,0,1,0,11.94,11.9A11.93,11.93,0,0,0,156,315.48Z" transform="translate(-1 -1)"/></svg>